<?xml version="1.0" encoding="utf-8" ?>
<svg baseProfile="full" height="1536" version="1.1" width="1536" xmlns="http://www.w3.org/2000/svg" xmlns:ev="http://www.w3.org/2001/xml-events" xmlns:xlink="http://www.w3.org/1999/xlink"><defs /><path d="M 887,440 L 886,441 L 877,441 L 876,442 L 871,442 L 870,443 L 866,443 L 865,444 L 862,444 L 861,445 L 858,445 L 857,446 L 854,446 L 853,447 L 851,447 L 850,448 L 847,448 L 846,449 L 844,449 L 843,450 L 841,450 L 840,451 L 839,451 L 838,452 L 837,452 L 836,453 L 834,453 L 833,454 L 832,454 L 831,455 L 830,455 L 829,456 L 828,456 L 827,457 L 826,457 L 825,458 L 824,458 L 823,459 L 822,459 L 821,460 L 820,460 L 819,461 L 818,461 L 817,462 L 816,462 L 815,463 L 814,463 L 812,465 L 811,465 L 809,467 L 808,467 L 806,469 L 805,469 L 803,471 L 802,471 L 799,474 L 798,474 L 795,477 L 794,477 L 790,481 L 789,481 L 778,492 L 777,492 L 777,493 L 769,501 L 769,502 L 766,505 L 766,506 L 763,509 L 763,510 L 760,513 L 760,514 L 758,516 L 758,517 L 755,520 L 755,521 L 754,522 L 754,523 L 753,524 L 753,525 L 752,526 L 752,527 L 750,529 L 750,530 L 748,532 L 748,533 L 747,534 L 747,535 L 746,536 L 746,537 L 745,538 L 745,539 L 744,540 L 744,541 L 743,542 L 743,544 L 742,545 L 742,546 L 741,547 L 741,549 L 740,550 L 740,551 L 739,552 L 739,554 L 738,555 L 738,556 L 737,557 L 737,559 L 736,560 L 736,564 L 735,565 L 735,568 L 734,569 L 734,572 L 733,573 L 733,578 L 732,579 L 732,585 L 731,586 L 731,607 L 732,608 L 732,615 L 733,616 L 733,620 L 734,621 L 734,623 L 735,624 L 735,627 L 736,628 L 736,631 L 737,632 L 737,634 L 738,635 L 738,636 L 739,637 L 739,638 L 740,639 L 740,640 L 741,641 L 741,643 L 743,645 L 743,646 L 744,647 L 744,648 L 746,650 L 746,651 L 747,652 L 747,653 L 749,655 L 749,656 L 752,659 L 752,660 L 766,674 L 767,674 L 772,679 L 773,679 L 774,680 L 775,680 L 777,682 L 778,682 L 780,684 L 782,684 L 783,685 L 784,685 L 785,686 L 786,686 L 787,687 L 789,687 L 790,688 L 791,688 L 792,689 L 794,689 L 795,690 L 797,690 L 798,691 L 800,691 L 801,692 L 804,692 L 805,693 L 809,693 L 810,694 L 832,694 L 833,693 L 836,693 L 837,692 L 841,692 L 842,691 L 845,691 L 846,690 L 847,690 L 848,689 L 850,689 L 851,688 L 852,688 L 853,687 L 855,687 L 856,686 L 857,686 L 858,685 L 859,685 L 861,683 L 862,683 L 864,681 L 865,681 L 867,679 L 868,679 L 881,666 L 881,665 L 884,662 L 884,661 L 886,659 L 886,658 L 887,657 L 887,656 L 888,655 L 888,654 L 889,653 L 889,652 L 890,651 L 890,650 L 891,649 L 891,647 L 892,646 L 892,643 L 893,642 L 893,640 L 894,639 L 894,635 L 895,634 L 895,628 L 896,627 L 896,623 L 895,622 L 895,613 L 894,612 L 894,609 L 893,608 L 893,605 L 892,604 L 892,602 L 891,601 L 891,600 L 890,599 L 890,598 L 889,597 L 889,596 L 888,595 L 888,594 L 886,592 L 886,591 L 884,589 L 884,588 L 874,578 L 873,578 L 872,577 L 871,577 L 870,576 L 869,576 L 868,575 L 867,575 L 866,574 L 865,574 L 864,573 L 859,573 L 858,572 L 857,572 L 855,570 L 855,564 L 856,563 L 856,562 L 857,561 L 857,560 L 861,556 L 862,556 L 864,554 L 866,554 L 867,553 L 869,553 L 870,552 L 875,552 L 876,551 L 881,551 L 882,552 L 887,552 L 888,553 L 889,553 L 890,554 L 892,554 L 893,555 L 894,555 L 895,556 L 896,556 L 898,558 L 899,558 L 900,559 L 901,559 L 905,563 L 906,563 L 911,568 L 911,569 L 914,572 L 914,573 L 916,575 L 916,576 L 917,577 L 917,578 L 919,580 L 919,581 L 920,582 L 920,583 L 921,584 L 921,586 L 922,587 L 922,589 L 923,590 L 923,592 L 924,593 L 924,596 L 925,597 L 925,600 L 926,601 L 926,606 L 927,607 L 927,634 L 926,635 L 926,639 L 925,640 L 925,644 L 924,645 L 924,647 L 923,648 L 923,652 L 922,653 L 922,655 L 921,656 L 921,658 L 920,659 L 920,661 L 919,662 L 919,663 L 917,665 L 917,667 L 916,668 L 916,669 L 915,670 L 915,671 L 914,672 L 914,673 L 912,675 L 912,676 L 911,677 L 911,678 L 908,681 L 908,682 L 904,686 L 904,687 L 891,700 L 890,700 L 887,703 L 886,703 L 883,706 L 882,706 L 880,708 L 879,708 L 878,709 L 877,709 L 876,710 L 875,710 L 873,712 L 872,712 L 871,713 L 870,713 L 869,714 L 867,714 L 866,715 L 865,715 L 864,716 L 862,716 L 861,717 L 860,717 L 859,718 L 857,718 L 856,719 L 853,719 L 852,720 L 849,720 L 848,721 L 844,721 L 843,722 L 838,722 L 837,723 L 830,723 L 829,724 L 814,724 L 813,723 L 803,723 L 802,722 L 799,722 L 798,721 L 794,721 L 793,720 L 790,720 L 789,719 L 786,719 L 785,718 L 783,718 L 782,717 L 780,717 L 779,716 L 778,716 L 777,715 L 776,715 L 775,714 L 773,714 L 772,713 L 771,713 L 769,711 L 768,711 L 767,710 L 766,710 L 765,709 L 764,709 L 763,708 L 762,708 L 760,706 L 759,706 L 758,705 L 757,705 L 755,703 L 754,703 L 752,701 L 751,701 L 747,697 L 746,697 L 728,679 L 728,678 L 724,674 L 724,673 L 722,671 L 722,670 L 719,667 L 719,666 L 718,665 L 718,664 L 717,663 L 717,662 L 715,660 L 715,659 L 714,658 L 714,657 L 713,656 L 713,655 L 712,654 L 712,653 L 711,652 L 711,651 L 710,650 L 710,649 L 709,648 L 709,647 L 708,646 L 708,644 L 707,643 L 707,642 L 706,641 L 706,638 L 705,637 L 705,636 L 704,635 L 704,632 L 703,631 L 703,628 L 702,627 L 702,624 L 701,623 L 701,619 L 700,618 L 700,612 L 699,611 L 699,586 L 700,585 L 700,577 L 701,576 L 701,571 L 702,570 L 702,566 L 703,565 L 703,562 L 704,561 L 704,559 L 705,558 L 705,556 L 706,555 L 706,553 L 707,552 L 707,550 L 708,549 L 708,547 L 709,546 L 709,545 L 710,544 L 710,543 L 711,542 L 711,540 L 712,539 L 712,538 L 713,537 L 713,536 L 714,535 L 714,533 L 715,532 L 715,530 L 716,529 L 715,528 L 714,528 L 713,527 L 712,527 L 711,526 L 710,526 L 709,525 L 707,525 L 706,524 L 702,524 L 701,523 L 699,523 L 698,522 L 695,522 L 694,521 L 691,521 L 690,520 L 687,520 L 686,519 L 680,519 L 679,518 L 648,518 L 647,519 L 641,519 L 640,520 L 637,520 L 636,521 L 633,521 L 632,522 L 629,522 L 628,523 L 625,523 L 624,524 L 622,524 L 621,525 L 619,525 L 618,526 L 617,526 L 616,527 L 614,527 L 613,528 L 612,528 L 611,529 L 609,529 L 608,530 L 607,530 L 606,531 L 605,531 L 604,532 L 603,532 L 602,533 L 601,533 L 600,534 L 599,534 L 598,535 L 597,535 L 595,537 L 594,537 L 593,538 L 592,538 L 590,540 L 589,540 L 587,542 L 586,542 L 583,545 L 582,545 L 579,548 L 578,548 L 575,551 L 574,551 L 560,565 L 560,566 L 554,572 L 554,573 L 552,575 L 552,576 L 549,579 L 549,580 L 547,582 L 547,583 L 545,585 L 545,586 L 544,587 L 544,588 L 542,590 L 542,591 L 541,592 L 541,593 L 540,594 L 540,595 L 539,596 L 539,597 L 538,598 L 538,599 L 537,600 L 537,601 L 536,602 L 536,603 L 535,604 L 535,605 L 534,606 L 534,608 L 533,609 L 533,610 L 532,611 L 532,613 L 531,614 L 531,615 L 530,616 L 530,618 L 529,619 L 529,622 L 528,623 L 528,626 L 527,627 L 527,629 L 526,630 L 526,633 L 525,634 L 525,638 L 524,639 L 524,644 L 523,645 L 523,655 L 522,656 L 522,676 L 523,677 L 523,686 L 524,687 L 524,693 L 525,694 L 525,698 L 526,699 L 526,701 L 527,702 L 527,705 L 528,706 L 528,708 L 529,709 L 529,712 L 530,713 L 530,715 L 531,716 L 531,717 L 532,718 L 532,719 L 533,720 L 533,724 L 532,725 L 525,725 L 524,724 L 517,724 L 516,723 L 492,723 L 491,724 L 485,724 L 484,725 L 480,725 L 479,726 L 476,726 L 475,727 L 472,727 L 471,728 L 468,728 L 467,729 L 465,729 L 464,730 L 462,730 L 461,731 L 459,731 L 458,732 L 456,732 L 455,733 L 454,733 L 453,734 L 452,734 L 451,735 L 450,735 L 449,736 L 448,736 L 447,737 L 446,737 L 445,738 L 444,738 L 443,739 L 442,739 L 441,740 L 440,740 L 439,741 L 438,741 L 436,743 L 435,743 L 433,745 L 432,745 L 431,746 L 430,746 L 428,748 L 427,748 L 423,752 L 422,752 L 419,755 L 418,755 L 414,759 L 413,759 L 404,768 L 403,768 L 401,770 L 401,771 L 399,773 L 398,773 L 393,778 L 393,779 L 391,781 L 390,781 L 380,791 L 379,791 L 375,795 L 374,795 L 371,798 L 370,798 L 367,801 L 366,801 L 365,802 L 364,802 L 362,804 L 361,804 L 360,805 L 359,805 L 358,806 L 357,806 L 356,807 L 355,807 L 354,808 L 353,808 L 352,809 L 351,809 L 350,810 L 349,810 L 348,811 L 346,811 L 345,812 L 343,812 L 342,813 L 339,813 L 338,814 L 336,814 L 335,815 L 331,815 L 330,816 L 320,816 L 319,817 L 309,817 L 308,816 L 298,816 L 297,815 L 291,815 L 290,814 L 286,814 L 285,813 L 282,813 L 281,812 L 278,812 L 277,811 L 274,811 L 273,810 L 271,810 L 270,809 L 268,809 L 267,808 L 265,808 L 264,807 L 262,807 L 261,806 L 259,806 L 258,805 L 257,805 L 256,804 L 255,804 L 254,803 L 252,803 L 251,802 L 250,802 L 249,801 L 247,801 L 246,800 L 245,800 L 244,799 L 243,799 L 242,798 L 241,798 L 240,797 L 239,797 L 238,796 L 237,796 L 236,795 L 234,795 L 232,793 L 231,793 L 230,792 L 229,792 L 228,791 L 227,791 L 226,790 L 225,790 L 224,789 L 223,789 L 221,787 L 220,787 L 219,786 L 218,786 L 217,785 L 216,785 L 215,784 L 214,784 L 212,782 L 211,782 L 209,780 L 208,780 L 207,779 L 206,779 L 205,778 L 204,778 L 202,776 L 201,776 L 200,775 L 199,775 L 197,773 L 196,773 L 194,771 L 193,771 L 191,769 L 190,769 L 189,768 L 188,768 L 186,766 L 185,766 L 183,764 L 182,764 L 180,762 L 179,762 L 179,766 L 180,767 L 180,772 L 181,773 L 181,777 L 182,778 L 182,781 L 183,782 L 183,785 L 184,786 L 184,791 L 185,792 L 185,795 L 186,796 L 186,799 L 187,800 L 187,803 L 188,804 L 188,806 L 189,807 L 189,809 L 190,810 L 190,812 L 191,813 L 191,815 L 192,816 L 192,818 L 193,819 L 193,821 L 194,822 L 194,823 L 195,824 L 195,826 L 196,827 L 196,829 L 197,830 L 197,831 L 198,832 L 198,834 L 199,835 L 199,836 L 200,837 L 200,838 L 201,839 L 201,841 L 202,842 L 202,843 L 203,844 L 203,845 L 204,846 L 204,847 L 205,848 L 205,849 L 206,850 L 206,851 L 207,852 L 207,854 L 208,855 L 208,856 L 209,857 L 209,858 L 210,859 L 210,860 L 212,862 L 212,863 L 213,864 L 213,865 L 214,866 L 214,867 L 215,868 L 215,869 L 216,870 L 216,871 L 218,873 L 218,874 L 219,875 L 219,876 L 221,878 L 221,879 L 223,881 L 223,882 L 224,883 L 224,884 L 226,886 L 226,887 L 228,889 L 228,890 L 230,892 L 230,893 L 232,895 L 232,896 L 235,899 L 235,900 L 236,901 L 236,902 L 240,906 L 240,907 L 244,911 L 244,912 L 248,916 L 248,917 L 253,922 L 253,923 L 262,932 L 262,933 L 270,941 L 271,941 L 272,942 L 272,943 L 273,943 L 274,944 L 274,945 L 275,945 L 285,955 L 286,955 L 291,960 L 292,960 L 296,964 L 297,964 L 300,967 L 301,967 L 303,969 L 304,969 L 307,972 L 308,972 L 310,974 L 311,974 L 314,977 L 315,977 L 317,979 L 318,979 L 319,980 L 320,980 L 322,982 L 323,982 L 325,984 L 326,984 L 327,985 L 328,985 L 329,986 L 330,986 L 332,988 L 333,988 L 334,989 L 335,989 L 337,991 L 338,991 L 339,992 L 340,992 L 341,993 L 342,993 L 343,994 L 344,994 L 345,995 L 346,995 L 347,996 L 348,996 L 349,997 L 350,997 L 351,998 L 352,998 L 353,999 L 354,999 L 355,1000 L 357,1000 L 358,1001 L 359,1001 L 360,1002 L 361,1002 L 362,1003 L 363,1003 L 364,1004 L 365,1004 L 366,1005 L 368,1005 L 369,1006 L 371,1006 L 372,1007 L 373,1007 L 374,1008 L 375,1008 L 376,1009 L 378,1009 L 379,1010 L 381,1010 L 382,1011 L 385,1011 L 386,1012 L 388,1012 L 389,1013 L 391,1013 L 392,1014 L 394,1014 L 395,1015 L 398,1015 L 399,1016 L 403,1016 L 404,1017 L 407,1017 L 408,1018 L 413,1018 L 414,1019 L 418,1019 L 419,1020 L 423,1020 L 424,1021 L 430,1021 L 431,1022 L 446,1022 L 447,1023 L 452,1023 L 453,1022 L 458,1022 L 458,1017 L 457,1016 L 457,1011 L 456,1010 L 456,1004 L 455,1003 L 455,994 L 454,993 L 454,957 L 455,956 L 455,949 L 456,948 L 456,942 L 457,941 L 457,937 L 458,936 L 458,934 L 459,933 L 459,931 L 460,930 L 460,927 L 461,926 L 461,924 L 462,923 L 462,921 L 463,920 L 463,918 L 464,917 L 464,916 L 465,915 L 465,914 L 466,913 L 466,912 L 467,911 L 467,909 L 468,908 L 468,907 L 469,906 L 469,905 L 470,904 L 470,903 L 471,902 L 471,901 L 473,899 L 473,898 L 474,897 L 474,896 L 476,894 L 476,893 L 478,891 L 478,890 L 481,887 L 481,886 L 484,883 L 484,882 L 502,864 L 503,864 L 508,859 L 509,859 L 511,857 L 512,857 L 514,855 L 515,855 L 517,853 L 518,853 L 519,852 L 520,852 L 521,851 L 522,851 L 524,849 L 525,849 L 526,848 L 527,848 L 528,847 L 529,847 L 530,846 L 531,846 L 532,845 L 533,845 L 534,844 L 535,844 L 536,843 L 538,843 L 539,842 L 541,842 L 542,841 L 544,841 L 545,840 L 547,840 L 548,839 L 550,839 L 551,838 L 554,838 L 555,837 L 559,837 L 560,836 L 565,836 L 566,835 L 575,835 L 576,834 L 593,834 L 594,835 L 601,835 L 602,836 L 607,836 L 608,837 L 612,837 L 613,838 L 616,838 L 617,839 L 620,839 L 621,840 L 623,840 L 624,841 L 626,841 L 627,842 L 628,842 L 629,843 L 631,843 L 632,844 L 633,844 L 634,845 L 635,845 L 636,846 L 637,846 L 638,847 L 640,847 L 641,848 L 642,848 L 644,850 L 645,850 L 647,852 L 648,852 L 650,854 L 651,854 L 654,857 L 655,857 L 658,860 L 659,860 L 669,870 L 669,871 L 673,875 L 673,876 L 676,879 L 676,880 L 677,881 L 677,882 L 679,884 L 679,885 L 680,886 L 680,887 L 681,888 L 681,889 L 682,890 L 682,891 L 683,892 L 683,894 L 684,895 L 684,896 L 685,897 L 685,899 L 686,900 L 686,902 L 687,903 L 687,907 L 688,908 L 688,914 L 689,915 L 689,935 L 688,936 L 688,941 L 687,942 L 687,945 L 686,946 L 686,948 L 685,949 L 685,951 L 684,952 L 684,954 L 683,955 L 683,956 L 682,957 L 682,958 L 681,959 L 681,960 L 679,962 L 679,963 L 678,964 L 678,965 L 676,967 L 676,968 L 672,972 L 672,973 L 664,981 L 663,981 L 661,983 L 660,983 L 658,985 L 657,985 L 655,987 L 653,987 L 652,988 L 651,988 L 650,989 L 649,989 L 648,990 L 646,990 L 645,991 L 643,991 L 642,992 L 635,992 L 634,993 L 630,993 L 629,992 L 624,992 L 623,991 L 621,991 L 620,990 L 619,990 L 618,989 L 617,989 L 616,988 L 615,988 L 612,985 L 611,985 L 608,982 L 608,981 L 606,979 L 606,977 L 605,976 L 605,969 L 607,967 L 613,967 L 614,968 L 625,968 L 626,967 L 629,967 L 630,966 L 632,966 L 633,965 L 634,965 L 635,964 L 636,964 L 637,963 L 638,963 L 639,962 L 640,962 L 645,957 L 646,957 L 646,956 L 651,951 L 651,950 L 652,949 L 652,948 L 653,947 L 653,946 L 654,945 L 654,944 L 655,943 L 655,941 L 656,940 L 656,937 L 657,936 L 657,932 L 658,931 L 658,920 L 657,919 L 657,914 L 656,913 L 656,910 L 655,909 L 655,907 L 654,906 L 654,904 L 653,903 L 653,902 L 652,901 L 652,900 L 651,899 L 651,898 L 650,897 L 650,896 L 648,894 L 648,893 L 647,892 L 647,891 L 644,888 L 644,887 L 636,879 L 635,879 L 632,876 L 631,876 L 628,873 L 627,873 L 626,872 L 625,872 L 623,870 L 622,870 L 621,869 L 620,869 L 619,868 L 618,868 L 617,867 L 616,867 L 615,866 L 612,866 L 611,865 L 609,865 L 608,864 L 605,864 L 604,863 L 600,863 L 599,862 L 592,862 L 591,861 L 584,861 L 583,862 L 574,862 L 573,863 L 568,863 L 567,864 L 565,864 L 564,865 L 561,865 L 560,866 L 558,866 L 557,867 L 555,867 L 554,868 L 552,868 L 551,869 L 550,869 L 549,870 L 548,870 L 547,871 L 546,871 L 545,872 L 544,872 L 543,873 L 542,873 L 541,874 L 540,874 L 538,876 L 537,876 L 535,878 L 534,878 L 533,879 L 532,879 L 529,882 L 528,882 L 525,885 L 524,885 L 510,899 L 510,900 L 507,903 L 507,904 L 504,907 L 504,908 L 502,910 L 502,911 L 501,912 L 501,913 L 500,914 L 500,915 L 498,917 L 498,918 L 497,919 L 497,920 L 496,921 L 496,923 L 495,924 L 495,925 L 494,926 L 494,927 L 493,928 L 493,930 L 492,931 L 492,933 L 491,934 L 491,937 L 490,938 L 490,942 L 489,943 L 489,946 L 488,947 L 488,953 L 487,954 L 487,980 L 488,981 L 488,988 L 489,989 L 489,993 L 490,994 L 490,997 L 491,998 L 491,1001 L 492,1002 L 492,1005 L 493,1006 L 493,1008 L 494,1009 L 494,1010 L 495,1011 L 495,1013 L 496,1014 L 496,1015 L 497,1016 L 497,1018 L 498,1019 L 498,1020 L 499,1021 L 499,1022 L 500,1023 L 500,1024 L 501,1025 L 501,1026 L 502,1027 L 502,1028 L 503,1029 L 503,1030 L 504,1031 L 504,1032 L 505,1033 L 505,1034 L 507,1036 L 507,1037 L 508,1038 L 508,1039 L 511,1042 L 511,1043 L 513,1045 L 513,1046 L 517,1050 L 517,1051 L 523,1057 L 523,1058 L 528,1063 L 529,1063 L 536,1070 L 537,1070 L 539,1072 L 540,1072 L 543,1075 L 544,1075 L 546,1077 L 547,1077 L 549,1079 L 550,1079 L 552,1081 L 553,1081 L 554,1082 L 555,1082 L 556,1083 L 557,1083 L 559,1085 L 560,1085 L 561,1086 L 563,1086 L 564,1087 L 565,1087 L 566,1088 L 567,1088 L 568,1089 L 569,1089 L 570,1090 L 571,1090 L 572,1091 L 574,1091 L 575,1092 L 577,1092 L 578,1093 L 580,1093 L 581,1094 L 583,1094 L 584,1095 L 585,1095 L 586,1096 L 589,1096 L 590,1097 L 593,1097 L 594,1098 L 597,1098 L 598,1099 L 603,1099 L 604,1100 L 610,1100 L 611,1101 L 621,1101 L 622,1102 L 636,1102 L 637,1101 L 645,1101 L 646,1100 L 652,1100 L 653,1099 L 658,1099 L 659,1098 L 663,1098 L 664,1097 L 666,1097 L 667,1096 L 670,1096 L 671,1095 L 673,1095 L 674,1094 L 676,1094 L 677,1093 L 679,1093 L 680,1092 L 682,1092 L 683,1091 L 684,1091 L 685,1090 L 686,1090 L 687,1089 L 689,1089 L 690,1088 L 691,1088 L 692,1087 L 693,1087 L 694,1086 L 695,1086 L 696,1085 L 697,1085 L 698,1084 L 699,1084 L 701,1082 L 702,1082 L 703,1081 L 704,1081 L 706,1079 L 707,1079 L 708,1078 L 709,1078 L 711,1076 L 712,1076 L 715,1073 L 716,1073 L 719,1070 L 720,1070 L 725,1065 L 726,1065 L 740,1051 L 740,1050 L 744,1046 L 744,1045 L 747,1042 L 747,1041 L 750,1038 L 750,1037 L 753,1034 L 753,1033 L 755,1031 L 755,1030 L 756,1029 L 756,1028 L 758,1026 L 758,1025 L 760,1023 L 760,1022 L 761,1021 L 761,1020 L 762,1019 L 762,1018 L 763,1017 L 764,1017 L 767,1020 L 767,1021 L 768,1022 L 768,1023 L 769,1024 L 769,1025 L 770,1026 L 770,1027 L 771,1028 L 771,1029 L 773,1031 L 773,1032 L 774,1033 L 774,1034 L 776,1036 L 776,1037 L 779,1040 L 779,1041 L 780,1042 L 780,1043 L 783,1046 L 783,1047 L 785,1049 L 785,1050 L 791,1056 L 791,1057 L 808,1074 L 809,1074 L 813,1078 L 814,1078 L 817,1081 L 818,1081 L 820,1083 L 821,1083 L 824,1086 L 825,1086 L 826,1087 L 827,1087 L 829,1089 L 830,1089 L 832,1091 L 833,1091 L 834,1092 L 835,1092 L 836,1093 L 837,1093 L 838,1094 L 839,1094 L 840,1095 L 841,1095 L 843,1097 L 845,1097 L 846,1098 L 847,1098 L 848,1099 L 849,1099 L 850,1100 L 852,1100 L 853,1101 L 854,1101 L 855,1102 L 857,1102 L 858,1103 L 860,1103 L 861,1104 L 863,1104 L 864,1105 L 866,1105 L 867,1106 L 870,1106 L 871,1107 L 873,1107 L 874,1108 L 879,1108 L 880,1109 L 884,1109 L 885,1110 L 892,1110 L 893,1111 L 907,1111 L 908,1112 L 909,1111 L 926,1111 L 927,1110 L 934,1110 L 935,1109 L 940,1109 L 941,1108 L 944,1108 L 945,1107 L 948,1107 L 949,1106 L 951,1106 L 952,1105 L 955,1105 L 956,1104 L 958,1104 L 959,1103 L 961,1103 L 962,1102 L 963,1102 L 964,1101 L 966,1101 L 967,1100 L 968,1100 L 969,1099 L 970,1099 L 971,1098 L 973,1098 L 974,1097 L 975,1097 L 976,1096 L 977,1096 L 978,1095 L 979,1095 L 980,1094 L 981,1094 L 983,1092 L 984,1092 L 985,1091 L 986,1091 L 988,1089 L 989,1089 L 990,1088 L 991,1088 L 993,1086 L 994,1086 L 996,1084 L 997,1084 L 1000,1081 L 1001,1081 L 1008,1074 L 1009,1074 L 1021,1062 L 1021,1061 L 1027,1055 L 1027,1054 L 1029,1052 L 1029,1051 L 1032,1048 L 1032,1047 L 1034,1045 L 1034,1044 L 1036,1042 L 1036,1041 L 1037,1040 L 1037,1039 L 1038,1038 L 1038,1037 L 1039,1036 L 1039,1035 L 1041,1033 L 1041,1032 L 1042,1031 L 1042,1030 L 1043,1029 L 1043,1028 L 1044,1027 L 1044,1025 L 1045,1024 L 1045,1022 L 1046,1021 L 1046,1020 L 1047,1019 L 1047,1017 L 1048,1016 L 1048,1014 L 1049,1013 L 1049,1012 L 1048,1012 L 1046,1010 L 1045,1010 L 1043,1008 L 1042,1008 L 1041,1007 L 1040,1007 L 1037,1004 L 1036,1004 L 1034,1002 L 1033,1002 L 1029,998 L 1028,998 L 1024,994 L 1023,994 L 1006,977 L 1006,976 L 1001,971 L 1001,970 L 998,967 L 998,966 L 996,964 L 996,963 L 994,961 L 994,960 L 992,958 L 992,957 L 990,955 L 990,954 L 989,953 L 989,952 L 988,951 L 988,950 L 986,948 L 986,947 L 985,946 L 985,945 L 984,944 L 984,943 L 983,942 L 983,941 L 982,940 L 982,939 L 981,938 L 981,937 L 980,936 L 980,935 L 979,934 L 979,932 L 978,931 L 978,929 L 977,928 L 977,926 L 976,925 L 976,924 L 975,923 L 975,921 L 974,920 L 974,918 L 973,917 L 973,914 L 972,913 L 972,909 L 971,908 L 971,905 L 970,904 L 970,900 L 969,899 L 969,893 L 968,892 L 968,862 L 969,861 L 969,856 L 970,855 L 970,852 L 971,851 L 971,847 L 972,846 L 972,844 L 973,843 L 973,840 L 974,839 L 974,837 L 975,836 L 975,835 L 976,834 L 976,832 L 977,831 L 977,830 L 978,829 L 978,828 L 979,827 L 979,825 L 980,824 L 980,823 L 981,822 L 981,821 L 983,819 L 983,818 L 984,817 L 984,816 L 985,815 L 985,814 L 986,813 L 986,812 L 988,810 L 988,809 L 991,806 L 991,805 L 995,801 L 995,800 L 1008,787 L 1009,787 L 1013,783 L 1014,783 L 1017,780 L 1018,780 L 1020,778 L 1021,778 L 1022,777 L 1023,777 L 1024,776 L 1025,776 L 1027,774 L 1028,774 L 1029,773 L 1030,773 L 1031,772 L 1033,772 L 1034,771 L 1036,771 L 1037,770 L 1039,770 L 1040,769 L 1041,769 L 1042,768 L 1044,768 L 1045,767 L 1049,767 L 1050,766 L 1054,766 L 1055,765 L 1064,765 L 1065,764 L 1075,764 L 1076,765 L 1083,765 L 1084,766 L 1089,766 L 1090,767 L 1093,767 L 1094,768 L 1095,768 L 1096,769 L 1097,769 L 1098,770 L 1100,770 L 1101,771 L 1103,771 L 1104,772 L 1105,772 L 1106,773 L 1107,773 L 1109,775 L 1110,775 L 1112,777 L 1113,777 L 1115,779 L 1116,779 L 1120,783 L 1121,783 L 1122,784 L 1122,785 L 1129,792 L 1129,793 L 1130,794 L 1130,795 L 1132,797 L 1132,798 L 1133,799 L 1133,800 L 1134,801 L 1134,802 L 1135,803 L 1135,804 L 1136,805 L 1136,807 L 1137,808 L 1137,810 L 1138,811 L 1138,814 L 1139,815 L 1139,833 L 1138,834 L 1138,838 L 1137,839 L 1137,840 L 1136,841 L 1136,843 L 1135,844 L 1135,845 L 1133,847 L 1133,848 L 1130,851 L 1130,852 L 1126,856 L 1125,856 L 1123,858 L 1122,858 L 1121,859 L 1120,859 L 1119,860 L 1117,860 L 1116,861 L 1109,861 L 1106,858 L 1106,854 L 1108,852 L 1108,851 L 1110,849 L 1110,848 L 1111,847 L 1111,846 L 1112,845 L 1112,844 L 1113,843 L 1113,840 L 1114,839 L 1114,827 L 1113,826 L 1113,823 L 1112,822 L 1112,820 L 1111,819 L 1111,817 L 1110,816 L 1110,815 L 1109,814 L 1109,813 L 1106,810 L 1106,809 L 1098,801 L 1097,801 L 1096,800 L 1095,800 L 1093,798 L 1092,798 L 1091,797 L 1089,797 L 1088,796 L 1087,796 L 1086,795 L 1084,795 L 1083,794 L 1080,794 L 1079,793 L 1075,793 L 1074,792 L 1064,792 L 1063,793 L 1058,793 L 1057,794 L 1054,794 L 1053,795 L 1050,795 L 1049,796 L 1047,796 L 1046,797 L 1045,797 L 1044,798 L 1043,798 L 1042,799 L 1041,799 L 1040,800 L 1039,800 L 1038,801 L 1037,801 L 1035,803 L 1034,803 L 1031,806 L 1030,806 L 1019,817 L 1019,818 L 1016,821 L 1016,822 L 1014,824 L 1014,825 L 1013,826 L 1013,827 L 1012,828 L 1012,829 L 1011,830 L 1011,831 L 1010,832 L 1010,833 L 1009,834 L 1009,835 L 1008,836 L 1008,838 L 1007,839 L 1007,841 L 1006,842 L 1006,843 L 1005,844 L 1005,846 L 1004,847 L 1004,850 L 1003,851 L 1003,855 L 1002,856 L 1002,862 L 1001,863 L 1001,887 L 1002,888 L 1002,895 L 1003,896 L 1003,900 L 1004,901 L 1004,904 L 1005,905 L 1005,908 L 1006,909 L 1006,911 L 1007,912 L 1007,914 L 1008,915 L 1008,917 L 1009,918 L 1009,920 L 1010,921 L 1010,922 L 1011,923 L 1011,924 L 1012,925 L 1012,926 L 1013,927 L 1013,929 L 1014,930 L 1014,931 L 1015,932 L 1015,933 L 1016,934 L 1016,935 L 1017,936 L 1017,937 L 1019,939 L 1019,940 L 1020,941 L 1020,942 L 1021,943 L 1021,944 L 1023,946 L 1023,947 L 1025,949 L 1025,950 L 1027,952 L 1027,953 L 1029,955 L 1029,956 L 1031,958 L 1031,959 L 1035,963 L 1035,964 L 1040,969 L 1040,970 L 1046,976 L 1046,977 L 1047,977 L 1049,979 L 1049,980 L 1050,980 L 1060,990 L 1061,990 L 1066,995 L 1067,995 L 1070,998 L 1071,998 L 1073,1000 L 1074,1000 L 1076,1002 L 1077,1002 L 1080,1005 L 1081,1005 L 1082,1006 L 1083,1006 L 1084,1007 L 1085,1007 L 1087,1009 L 1088,1009 L 1090,1011 L 1091,1011 L 1092,1012 L 1093,1012 L 1094,1013 L 1095,1013 L 1096,1014 L 1097,1014 L 1099,1016 L 1101,1016 L 1102,1017 L 1103,1017 L 1104,1018 L 1105,1018 L 1106,1019 L 1107,1019 L 1108,1020 L 1109,1020 L 1110,1021 L 1111,1021 L 1112,1022 L 1114,1022 L 1115,1023 L 1117,1023 L 1118,1024 L 1119,1024 L 1120,1025 L 1121,1025 L 1122,1026 L 1125,1026 L 1126,1027 L 1128,1027 L 1129,1028 L 1132,1028 L 1133,1029 L 1134,1029 L 1135,1030 L 1138,1030 L 1139,1031 L 1142,1031 L 1143,1032 L 1146,1032 L 1147,1033 L 1153,1033 L 1154,1034 L 1160,1034 L 1161,1035 L 1168,1035 L 1169,1036 L 1204,1036 L 1205,1035 L 1211,1035 L 1212,1034 L 1217,1034 L 1218,1033 L 1221,1033 L 1222,1032 L 1226,1032 L 1227,1031 L 1230,1031 L 1231,1030 L 1233,1030 L 1234,1029 L 1235,1029 L 1236,1028 L 1239,1028 L 1240,1027 L 1241,1027 L 1242,1026 L 1244,1026 L 1245,1025 L 1246,1025 L 1248,1023 L 1250,1023 L 1251,1022 L 1252,1022 L 1253,1021 L 1254,1021 L 1256,1019 L 1257,1019 L 1259,1017 L 1260,1017 L 1261,1016 L 1262,1016 L 1264,1014 L 1265,1014 L 1268,1011 L 1269,1011 L 1274,1006 L 1275,1006 L 1284,997 L 1284,996 L 1289,991 L 1289,990 L 1291,988 L 1291,987 L 1294,984 L 1294,983 L 1295,982 L 1295,981 L 1296,980 L 1296,979 L 1298,977 L 1298,976 L 1299,975 L 1299,974 L 1300,973 L 1300,971 L 1301,970 L 1301,969 L 1302,968 L 1302,967 L 1303,966 L 1303,964 L 1304,963 L 1304,961 L 1305,960 L 1305,957 L 1306,956 L 1306,953 L 1307,952 L 1307,948 L 1308,947 L 1308,940 L 1309,939 L 1309,926 L 1308,925 L 1308,918 L 1307,917 L 1307,914 L 1306,913 L 1306,909 L 1305,908 L 1305,906 L 1304,905 L 1304,903 L 1303,902 L 1303,901 L 1302,900 L 1302,899 L 1301,898 L 1301,896 L 1300,895 L 1300,894 L 1299,893 L 1299,892 L 1298,891 L 1298,890 L 1296,888 L 1296,887 L 1295,886 L 1295,885 L 1293,883 L 1293,882 L 1290,879 L 1290,878 L 1281,869 L 1280,869 L 1277,866 L 1276,866 L 1274,864 L 1273,864 L 1271,862 L 1270,862 L 1269,861 L 1268,861 L 1267,860 L 1265,860 L 1264,859 L 1263,859 L 1262,858 L 1260,858 L 1259,857 L 1257,857 L 1256,856 L 1252,856 L 1251,855 L 1246,855 L 1245,854 L 1234,854 L 1233,855 L 1228,855 L 1227,856 L 1224,856 L 1223,857 L 1221,857 L 1220,858 L 1218,858 L 1217,859 L 1216,859 L 1215,860 L 1213,860 L 1212,861 L 1211,861 L 1210,862 L 1209,862 L 1207,864 L 1206,864 L 1204,866 L 1203,866 L 1201,868 L 1200,868 L 1196,872 L 1195,872 L 1194,871 L 1194,870 L 1192,868 L 1192,867 L 1195,864 L 1195,863 L 1198,860 L 1198,859 L 1202,855 L 1202,854 L 1203,853 L 1203,852 L 1205,850 L 1205,849 L 1207,847 L 1207,846 L 1209,844 L 1209,843 L 1211,841 L 1211,840 L 1212,839 L 1212,838 L 1213,837 L 1213,836 L 1214,835 L 1214,834 L 1215,833 L 1215,832 L 1216,831 L 1216,830 L 1217,829 L 1217,828 L 1218,827 L 1218,825 L 1219,824 L 1219,823 L 1220,822 L 1220,820 L 1221,819 L 1221,818 L 1222,817 L 1222,815 L 1223,814 L 1223,812 L 1224,811 L 1224,808 L 1225,807 L 1225,805 L 1226,804 L 1226,802 L 1227,801 L 1227,799 L 1228,798 L 1228,795 L 1229,794 L 1229,790 L 1230,789 L 1230,784 L 1231,783 L 1231,779 L 1232,778 L 1232,771 L 1233,770 L 1233,760 L 1234,759 L 1234,746 L 1233,745 L 1233,733 L 1232,732 L 1232,725 L 1231,724 L 1231,720 L 1230,719 L 1230,715 L 1229,714 L 1229,710 L 1228,709 L 1228,706 L 1227,705 L 1227,702 L 1226,701 L 1226,700 L 1225,699 L 1225,696 L 1224,695 L 1224,693 L 1223,692 L 1223,690 L 1222,689 L 1222,688 L 1221,687 L 1221,686 L 1220,685 L 1220,683 L 1219,682 L 1219,681 L 1218,680 L 1218,678 L 1217,677 L 1217,676 L 1216,675 L 1216,674 L 1215,673 L 1215,672 L 1214,671 L 1214,670 L 1212,668 L 1212,667 L 1211,666 L 1211,665 L 1209,663 L 1209,662 L 1208,661 L 1208,660 L 1206,658 L 1206,657 L 1204,655 L 1204,654 L 1202,652 L 1202,651 L 1198,647 L 1198,646 L 1194,642 L 1194,641 L 1181,628 L 1180,628 L 1175,623 L 1174,623 L 1171,620 L 1170,620 L 1168,618 L 1167,618 L 1165,616 L 1164,616 L 1162,614 L 1161,614 L 1159,612 L 1158,612 L 1157,611 L 1156,611 L 1155,610 L 1154,610 L 1152,608 L 1151,608 L 1150,607 L 1149,607 L 1148,606 L 1147,606 L 1146,605 L 1144,605 L 1142,603 L 1140,603 L 1139,602 L 1138,602 L 1137,601 L 1135,601 L 1134,600 L 1132,600 L 1131,599 L 1129,599 L 1128,598 L 1126,598 L 1125,597 L 1122,597 L 1121,596 L 1118,596 L 1117,595 L 1114,595 L 1113,594 L 1108,594 L 1107,593 L 1099,593 L 1098,592 L 1085,592 L 1084,591 L 1075,591 L 1074,592 L 1060,592 L 1059,593 L 1053,593 L 1052,594 L 1046,594 L 1045,595 L 1040,595 L 1039,594 L 1039,590 L 1040,589 L 1040,587 L 1041,586 L 1041,581 L 1042,580 L 1042,558 L 1041,557 L 1041,552 L 1040,551 L 1040,547 L 1039,546 L 1039,542 L 1038,541 L 1038,537 L 1037,536 L 1037,534 L 1036,533 L 1036,532 L 1035,531 L 1035,529 L 1034,528 L 1034,526 L 1033,525 L 1033,524 L 1032,523 L 1032,521 L 1031,520 L 1031,519 L 1030,518 L 1030,516 L 1029,515 L 1029,514 L 1027,512 L 1027,510 L 1025,508 L 1025,507 L 1023,505 L 1023,504 L 1022,503 L 1022,502 L 1019,499 L 1019,498 L 1017,496 L 1017,495 L 1015,493 L 1015,492 L 996,473 L 995,473 L 992,470 L 991,470 L 988,467 L 987,467 L 985,465 L 984,465 L 982,463 L 981,463 L 980,462 L 979,462 L 977,460 L 976,460 L 975,459 L 974,459 L 972,457 L 971,457 L 970,456 L 968,456 L 966,454 L 964,454 L 963,453 L 962,453 L 961,452 L 960,452 L 959,451 L 957,451 L 956,450 L 955,450 L 954,449 L 952,449 L 951,448 L 949,448 L 948,447 L 945,447 L 944,446 L 942,446 L 941,445 L 939,445 L 938,444 L 935,444 L 934,443 L 930,443 L 929,442 L 923,442 L 922,441 L 914,441 L 913,440 Z" fill="#2dd4cf" stroke="none" /></svg>